<?xml version="1.0" standalone="no"?>
<!DOCTYPE svg PUBLIC "-//W3C//DTD SVG 20010904//EN"
 "http://www.w3.org/TR/2001/REC-SVG-20010904/DTD/svg10.dtd">
<svg version="1.0" xmlns="http://www.w3.org/2000/svg"
 width="470.000000pt" height="470.000000pt" viewBox="0 0 470.000000 470.000000"
 preserveAspectRatio="xMidYMid meet">
<metadata>
Created by potrace 1.11, written by Peter Selinger 2001-2013
</metadata>
<g transform="translate(0.000000,470.000000) scale(0.100000,-0.100000)"
fill="#000000" stroke="none">
<path d="M1175 3963 c-4 -32 -13 -81 -21 -109 -11 -38 -12 -58 -4 -78 5 -15
10 -88 10 -162 0 -122 2 -140 27 -201 15 -38 30 -69 35 -71 4 -2 8 -8 8 -14 0
-5 10 -24 22 -41 13 -18 36 -57 51 -87 27 -53 128 -160 150 -160 6 0 19 -7 29
-17 21 -19 46 -33 105 -61 23 -11 48 -30 55 -41 7 -12 17 -21 22 -21 5 0 20
-10 33 -22 23 -21 37 -24 196 -48 57 -8 98 -21 116 -36 2 -2 -10 -15 -27 -29
-20 -17 -34 -40 -38 -63 -4 -20 -15 -54 -25 -77 -33 -75 -35 -137 -6 -218 15
-39 31 -100 36 -135 14 -89 74 -204 123 -239 44 -30 42 -32 -38 -59 -27 -9
-62 -26 -79 -38 -16 -13 -46 -26 -65 -29 -82 -16 -132 -35 -167 -65 -21 -18
-47 -32 -59 -32 -11 0 -29 -9 -39 -20 -10 -11 -24 -20 -31 -20 -7 0 -19 -6
-26 -14 -8 -7 -29 -17 -46 -21 -18 -3 -32 -10 -32 -14 0 -15 -125 -71 -170
-77 -25 -3 -54 -9 -65 -14 -20 -9 -88 -24 -157 -35 -20 -3 -50 -12 -65 -20
-15 -8 -34 -15 -42 -15 -7 0 -50 -9 -95 -19 -44 -11 -110 -22 -146 -26 -77 -7
-110 -26 -110 -60 0 -41 71 -55 276 -55 160 0 176 2 211 22 21 12 40 25 43 29
17 22 60 29 172 29 68 0 140 4 161 9 44 10 48 0 11 -32 -39 -34 -94 -112 -94
-134 0 -19 -73 -125 -125 -181 -14 -15 -25 -32 -25 -39 0 -6 -6 -13 -13 -15
-7 -3 -15 -35 -19 -84 -4 -43 -10 -97 -13 -119 -5 -36 -4 -38 8 -22 8 9 19 17
25 17 6 0 12 3 14 8 2 4 20 20 41 35 20 15 37 33 37 38 0 12 25 39 37 39 4 0
20 11 35 25 15 14 32 25 37 25 5 0 12 8 15 18 4 11 19 25 34 33 44 23 122 80
122 90 0 5 7 9 16 9 15 0 72 35 84 51 6 8 86 45 115 53 11 3 32 17 47 31 15
14 39 25 54 25 28 0 84 27 97 47 4 6 29 19 56 28 26 8 65 24 87 35 30 16 58
20 138 20 55 0 113 4 130 9 70 21 125 33 191 42 54 8 75 16 92 35 12 13 33 24
47 24 13 0 26 4 28 10 2 5 28 13 58 19 108 19 144 33 184 73 51 51 77 68 123
79 56 12 180 -8 223 -37 44 -29 140 -44 140 -22 0 8 -17 33 -37 54 -21 22 -44
57 -51 77 -15 41 -55 105 -117 185 -43 55 -88 76 -192 88 -46 5 -128 39 -139
56 -3 5 3 36 14 71 11 34 23 100 27 147 3 47 11 103 17 125 10 38 47 124 58
135 14 14 70 100 70 108 0 14 43 116 51 122 4 3 29 46 54 95 44 84 46 94 41
145 -8 71 -60 177 -97 196 -31 16 -131 114 -162 159 -11 17 -25 35 -31 40 -6
6 -33 41 -61 78 -82 112 -93 124 -104 108 -7 -10 -16 0 -35 43 -14 31 -26 62
-26 69 0 7 -24 38 -54 70 -42 45 -60 57 -84 57 -34 0 -42 -13 -42 -70 0 -30
-8 -45 -40 -79 -46 -47 -47 -49 -60 -206 -16 -191 -13 -287 10 -356 22 -63 71
-160 100 -194 30 -35 32 -55 7 -55 -30 0 -75 -47 -92 -96 l-13 -39 -12 30
c-20 52 -30 125 -37 262 -6 126 -7 134 -33 160 -15 15 -31 39 -35 53 -4 14
-16 36 -27 49 -23 30 -103 85 -138 96 -37 11 -103 48 -121 68 -9 9 -21 17 -26
17 -25 0 -136 43 -218 84 -49 26 -102 46 -117 46 -28 0 -164 45 -238 78 -25
12 -63 36 -84 56 -22 19 -64 44 -94 55 -30 12 -77 41 -104 66 -69 62 -85 60
-93 -12z"/>
</g>
</svg>
